<?xml version="1.0" standalone="no"?>
<!DOCTYPE svg PUBLIC "-//W3C//DTD SVG 20010904//EN"
 "http://www.w3.org/TR/2001/REC-SVG-20010904/DTD/svg10.dtd">
<svg version="1.0" xmlns="http://www.w3.org/2000/svg"
 width="512.000000pt" height="512.000000pt" viewBox="0 0 512.000000 512.000000"
 preserveAspectRatio="xMidYMid meet">
<metadata>
Created by potrace 1.16, written by Peter Selinger 2001-2019
</metadata>
<g transform="translate(0.000000,512.000000) scale(0.100000,-0.100000)"
fill="#000000" stroke="none">
<path d="M3317 5100 c-5 -20 -14 -20 -1061 -20 l-1056 0 -2 -147 c-1 -82 -1
-200 1 -264 2 -78 0 -119 -8 -123 -12 -8 -18 135 -13 319 2 61 1 134 -3 163
l-6 52 -585 0 -584 0 0 -40 c0 -39 1 -40 35 -40 35 0 35 0 35 -45 0 -45 0 -45
-35 -45 -44 0 -46 -18 -3 -22 26 -2 33 -9 40 -33 13 -50 1 -75 -38 -75 -19 0
-34 -4 -34 -10 0 -5 15 -10 34 -10 31 0 34 -3 40 -37 9 -58 7 -142 -4 -164 -7
-12 -21 -19 -40 -19 -17 0 -30 -5 -30 -10 0 -7 216 -10 649 -10 l649 1 6 22
c3 12 6 133 6 270 0 218 2 247 16 247 14 0 15 -29 13 -267 l-3 -268 1065 0
1064 0 3 298 c2 260 0 297 -13 297 -13 0 -15 -37 -15 -285 l0 -285 -22 0 -21
0 6 285 5 285 -43 0 c-34 0 -44 -4 -48 -20z m-2374 -57 c4 -2 7 -33 7 -69 l0
-64 -55 0 -55 0 0 69 c0 64 2 70 23 74 21 4 64 -2 80 -10z m474 -11 c6 -4 13
-39 15 -80 l3 -72 -42 0 -43 0 0 70 c0 64 2 72 23 80 28 11 30 11 44 2z m-269
-244 c-1 -192 -3 -223 -8 -148 -4 52 -8 152 -9 223 l-1 127 -70 0 c-63 0 -70
2 -70 20 0 18 7 20 80 20 l80 0 -2 -242z m446 200 c6 -52 26 -372 26 -410 0
-25 -4 -28 -34 -28 -19 0 -37 3 -39 8 -3 4 -8 112 -12 240 l-8 232 31 0 c29 0
31 -3 36 -42z m1547 24 c3 -4 4 -28 1 -54 l-4 -48 -39 0 -39 0 0 48 c0 26 6
54 12 60 13 13 56 8 69 -6z m-2331 -16 c0 -33 -13 -39 -60 -31 -29 5 -40 12
-40 24 0 26 9 31 57 31 39 0 43 -2 43 -24z m1609 18 c26 -5 31 -11 31 -34 0
-26 -3 -28 -45 -32 -44 -3 -45 -3 -45 28 0 45 5 48 59 38z m118 -6 c6 -7 11
-43 12 -80 l2 -68 -40 0 -41 0 0 73 c0 41 3 77 7 80 11 12 50 8 60 -5z m-809
-15 c-2 -12 -17 -20 -43 -24 -44 -8 -55 -4 -55 16 0 14 23 21 73 24 22 1 28
-3 25 -16z m1622 -213 l0 -230 -30 0 -30 0 0 230 0 230 30 0 30 0 0 -230z
m-1846 173 c3 -21 6 -120 6 -220 0 -148 -3 -183 -14 -183 -18 0 -26 85 -26
281 0 128 3 159 14 159 8 0 16 -15 20 -37z m1538 19 c3 -10 3 -109 0 -221 -5
-215 -8 -225 -52 -201 -22 12 -22 14 -17 223 3 117 6 213 6 215 1 1 14 2 30 2
19 0 30 -6 33 -18z m-412 -207 l0 -215 -26 0 c-25 0 -26 2 -20 38 3 20 6 117
6 215 0 170 1 177 20 177 19 0 20 -7 20 -215z m88 198 c-2 -12 -13 -18 -33
-18 -20 0 -31 6 -33 18 -3 14 4 17 33 17 29 0 36 -3 33 -17z m-2270 -205 l2
-208 -30 0 -30 0 0 211 0 210 28 -3 27 -3 3 -207z m672 10 c0 -112 -4 -209 -9
-216 -5 -9 -25 -12 -62 -10 l-54 3 -3 200 c-1 110 0 205 2 212 4 9 26 13 66
13 l60 0 0 -202z m1447 -115 c-1 -60 -3 -11 -3 107 0 118 2 167 3 108 2 -60 2
-156 0 -215z m-2302 102 l0 -200 -47 -3 -48 -3 0 199 c0 109 3 202 7 206 4 4
25 6 48 4 l40 -3 0 -200z m1501 39 c18 -87 35 -178 39 -201 l6 -43 -45 0 c-34
0 -46 4 -50 18 -7 23 -76 361 -76 372 0 8 61 19 85 15 5 -1 24 -73 41 -161z
m1192 14 l-3 -153 -30 0 -30 0 -3 153 -3 152 36 0 36 0 -3 -152z m302 102 l0
-50 -50 0 -50 0 0 50 0 50 50 0 50 0 0 -50z m-2695 -160 l0 -195 -47 -3 -48
-3 0 201 0 201 48 -3 47 -3 0 -195z m245 -1 l0 -200 -47 3 -48 3 -3 198 -2
197 50 0 50 0 0 -201z m-456 185 c14 -5 16 -32 16 -195 0 -104 -3 -189 -7
-190 -5 0 -16 -2 -27 -4 -45 -9 -46 -3 -46 194 0 103 3 191 7 194 8 9 36 9 57
1z m1864 -17 c2 -10 1 -29 -2 -43 -6 -23 -9 -24 -101 -24 l-95 0 0 38 c0 21 3
42 7 46 4 4 48 5 97 4 79 -3 91 -5 94 -21z m227 -175 c-1 -191 -3 -202 -45
-202 -38 0 -41 12 -42 194 -1 195 0 199 57 194 l30 -3 0 -183z m275 -2 l0
-190 -35 0 -35 0 0 183 c0 101 3 187 7 190 3 4 19 7 35 7 l28 0 0 -190z
m-2050 160 c0 -17 -7 -20 -40 -20 -33 0 -40 3 -40 20 0 17 7 20 40 20 33 0 40
-3 40 -20z m2453 -7 c-7 -2 -21 -2 -30 0 -10 3 -4 5 12 5 17 0 24 -2 18 -5z
m-2973 -173 l0 -170 -25 0 -25 0 0 170 0 170 25 0 25 0 0 -170z m795 160 c-3
-5 -28 -10 -56 -10 -27 0 -49 5 -49 10 0 6 25 10 56 10 34 0 53 -4 49 -10z
m2195 -170 c0 -98 -4 -161 -10 -165 -6 -4 -24 -4 -40 0 l-30 7 0 162 0 162 40
-4 40 -4 0 -158z m-2462 -9 l3 -151 -46 0 -45 0 0 153 0 152 42 -1 43 -1 3
-152z m267 149 c4 -6 -15 -10 -49 -10 -31 0 -56 5 -56 10 0 6 22 10 49 10 28
0 53 -4 56 -10z m485 -16 c0 -11 -9 -14 -37 -12 -52 4 -56 28 -4 28 30 0 41
-4 41 -16z m1114 -11 c-1 -7 -2 -71 -2 -143 l-2 -130 -35 0 -35 0 0 139 c0
102 3 141 13 145 21 9 62 1 61 -11z m716 -127 c0 -159 0 -158 -68 -148 l-32 4
0 144 0 144 50 0 50 0 0 -144z m-2310 124 c0 -5 -24 -11 -52 -12 l-53 -2 53
-3 52 -4 0 -124 0 -125 -26 -6 c-15 -4 -39 -3 -53 2 l-26 9 -3 138 -3 137 56
0 c30 0 55 -4 55 -10z m1348 -17 l3 -23 -185 0 c-174 0 -186 1 -186 18 0 10 3
22 7 26 4 3 86 5 182 4 174 -3 176 -3 179 -25z m-885 -10 c-13 -2 -33 -2 -45
0 -13 2 -3 4 22 4 25 0 35 -2 23 -4z m17 -134 l0 -110 -37 3 -38 3 -3 108 -3
107 41 0 40 0 0 -111z m876 55 c3 -25 2 -50 -3 -55 -5 -5 -87 -8 -194 -7
l-184 3 -3 39 c-6 68 -12 66 192 66 l185 0 7 -46z m644 -119 c0 -25 -3 -46 -7
-47 -29 -5 -74 -7 -110 -2 -42 5 -43 6 -43 43 0 21 3 41 7 44 3 4 39 7 80 7
l73 0 0 -45z m-1040 -5 c0 -43 -23 -57 -35 -20 -9 27 3 60 21 60 10 0 14 -12
14 -40z m385 -5 l0 -40 -182 0 c-100 0 -185 3 -188 7 -4 4 -4 23 -1 43 l7 35
182 -2 182 -3 0 -40z"/>
<path d="M1540 4899 c0 -12 7 -19 20 -19 11 0 20 6 20 14 0 7 -9 16 -20 19
-15 4 -20 0 -20 -14z"/>
<path d="M1064 4828 c3 -50 6 -132 7 -182 1 -74 3 -85 10 -61 6 18 7 74 3 140
-5 61 -7 129 -6 153 0 25 -3 42 -10 42 -8 0 -9 -28 -4 -92z"/>
<path d="M3506 5058 c-14 -19 -16 -63 -16 -281 l0 -258 228 1 c125 0 300 1
390 0 l163 0 -3 -47 -3 -48 -384 -5 -384 -5 2 -249 c2 -201 0 -247 -11 -244
-10 4 -14 60 -18 249 -3 134 -7 245 -8 247 -1 1 -506 2 -1122 2 l-1120 0 0
-54 c0 -30 -5 -58 -10 -61 -22 -13 -40 17 -40 66 l0 49 -552 1 c-304 1 -568 3
-585 5 l-33 2 0 -226 c1 -184 3 -231 15 -246 19 -25 19 -31 -2 -51 -16 -16
-16 -18 0 -27 23 -12 22 -64 0 -78 -17 -10 -17 -10 0 -20 23 -15 23 -75 0 -89
-17 -10 -17 -10 0 -11 14 0 17 -9 17 -48 0 -26 5 -53 12 -60 9 -9 6 -12 -15
-12 -20 0 -27 -5 -27 -20 0 -16 7 -20 35 -20 34 0 35 1 35 37 l0 36 97 -6 c54
-4 242 -8 418 -9 l320 -2 -295 -7 c-334 -7 -500 -18 -500 -32 0 -6 60 -7 158
-3 86 3 269 9 406 12 225 6 249 8 253 24 4 15 29 18 276 24 427 10 3161 -5
3649 -20 l197 -7 3 54 c3 53 4 54 36 57 43 4 41 22 -3 22 -34 0 -35 1 -35 40
0 39 1 40 35 40 19 0 35 5 35 10 0 6 -16 10 -35 10 -34 0 -35 1 -35 40 0 39 1
40 35 40 19 0 35 5 35 10 0 6 -16 10 -36 10 -34 0 -35 1 -32 33 3 28 7 32 36
35 l32 3 0 225 0 224 -394 0 c-217 0 -401 3 -410 6 -11 4 -16 19 -16 50 l0 44
411 0 c323 0 410 3 407 12 -3 7 -11 13 -19 14 -53 4 -50 -3 -47 107 l3 102 33
3 c17 2 32 7 32 12 0 5 -15 10 -32 12 -32 3 -33 5 -36 51 l-3 47 35 0 c25 0
36 4 36 15 0 10 -11 15 -35 15 -34 0 -35 1 -35 39 0 40 11 51 51 51 16 0 19 7
19 40 l0 40 -799 0 -800 0 -15 -22z m246 -48 c2 -5 2 -111 0 -234 l-3 -224
-24 -4 c-13 -3 -29 0 -34 5 -12 12 -16 449 -4 460 10 11 61 8 65 -3z m136 -72
l3 -78 -48 -2 -48 -2 48 -3 47 -4 0 -145 0 -144 -27 -11 c-14 -5 -39 -7 -55
-4 l-28 7 0 227 c0 125 3 231 7 235 4 4 28 6 53 4 l45 -3 3 -77z m682 -158 l0
-230 -30 0 -30 0 0 230 0 230 30 0 30 0 0 -230z m330 172 c0 -47 -1 -48 -28
-44 -18 2 -33 -2 -41 -12 -12 -14 -9 -16 28 -16 l41 0 -2 -162 -3 -163 -42 -3
-43 -3 0 225 0 226 45 0 45 0 0 -48z m-525 -187 l0 -210 -38 -3 -37 -3 0 209
c0 115 3 212 7 216 4 4 21 6 38 4 l30 -3 0 -210z m-775 195 c0 -5 -4 -10 -9
-10 -5 0 -23 -3 -40 -6 -24 -5 -31 -3 -31 10 0 12 10 16 40 16 22 0 40 -4 40
-10z m680 -206 c0 -175 -2 -204 -15 -204 -13 0 -15 29 -15 203 0 112 3 207 6
210 19 19 24 -23 24 -209z m-640 1 c0 -124 -4 -205 -10 -205 -5 0 -10 83 -12
205 -2 159 0 205 10 205 9 0 12 -48 12 -205z m390 175 c0 -29 -1 -30 -50 -30
-66 0 -64 -18 3 -23 l52 -3 -57 -2 -58 -2 0 45 0 45 55 0 c54 0 55 0 55 -30z
m140 -5 c0 -34 -1 -35 -42 -37 l-43 -1 45 -7 45 -7 -45 -3 -45 -3 43 -4 42 -4
0 -155 0 -154 -50 0 -50 0 0 198 c0 109 3 202 7 205 3 4 26 7 50 7 43 0 43 0
43 -35z m60 -170 c0 -198 -1 -205 -20 -205 -19 0 -20 7 -20 198 0 109 3 202 7
205 3 4 12 7 20 7 10 0 13 -41 13 -205z m795 190 c0 -5 -15 -11 -32 -13 -21
-2 -33 -9 -33 -18 0 -19 -39 -18 -46 1 -13 34 4 46 58 43 29 -2 53 -7 53 -13z
m-1427 -207 l-3 -193 -35 0 -35 0 -3 133 c-2 121 -1 132 15 133 17 1 17 2 1 6
-14 4 -18 15 -18 59 l0 54 40 0 40 0 -2 -192z m890 0 l-3 -183 -42 -3 -43 -3
0 185 0 186 45 0 45 0 -2 -182z m540 0 c-3 -181 -3 -183 -25 -186 l-23 -3 0
185 0 186 25 0 25 0 -2 -182z m-350 -5 l-3 -178 -42 -3 -43 -3 0 180 0 181 45
0 45 0 -2 -177z m102 -3 l0 -180 -40 0 -40 0 0 180 0 180 40 0 40 0 0 -180z
m178 -10 c-2 -103 -7 -163 -15 -171 -22 -22 -29 25 -25 179 4 143 5 152 24
152 19 0 19 -6 16 -160z m-928 5 l0 -125 -55 0 -55 0 0 125 0 125 55 0 55 0 0
-125z m-3 -160 c-5 -16 -97 -19 -97 -3 0 9 16 13 50 13 29 0 49 -4 47 -10z
m-3707 -525 c0 -265 -3 -340 -12 -341 -7 -1 -23 -3 -35 -4 l-23 -2 0 337 c0
185 3 340 7 343 3 4 19 7 35 7 l28 0 0 -340z m3327 198 c-4 -79 -7 -185 -7
-235 0 -92 0 -93 -25 -93 l-25 0 0 235 0 235 32 0 31 0 -6 -142z m-79 73 c3
-46 1 -52 -15 -49 -13 2 -19 14 -21 42 -4 46 4 69 21 64 7 -3 13 -26 15 -57z
m-2963 -306 l0 -310 -28 -3 c-57 -7 -57 -7 -57 318 0 322 -2 311 55 307 l30
-2 0 -310z m-105 -4 c0 -338 8 -308 -84 -310 -27 0 -55 4 -63 10 -10 9 -13 71
-13 299 0 157 3 290 7 293 3 4 39 7 80 7 l73 0 0 -299z m435 278 c4 -11 5 -22
3 -23 -1 -2 -36 -7 -75 -10 -69 -7 -73 -6 -73 13 0 20 25 28 127 40 6 0 15 -8
18 -20z m495 -314 l0 -335 -39 0 c-26 0 -41 5 -45 16 -8 21 -8 639 1 647 3 4
24 7 45 7 l38 0 0 -335z m120 300 l0 -35 -50 0 c-48 0 -50 1 -50 28 0 38 6 42
57 42 43 0 43 0 43 -35z m1328 -302 l2 -333 -30 0 -30 0 0 328 c0 181 3 332 7
336 4 4 16 6 28 4 20 -3 20 -9 23 -335z m-1558 242 l0 -85 -55 0 -55 0 0 85 0
85 55 0 55 0 0 -85z m280 -245 c0 -213 -4 -330 -10 -330 -6 0 -10 117 -10 330
0 213 4 330 10 330 6 0 10 -117 10 -330z m1194 308 c3 -13 6 -45 6 -73 0 -83
-7 -95 -51 -95 l-39 0 0 95 0 95 39 0 c32 0 40 -4 45 -22z m-194 -313 c0 -210
-4 -325 -10 -325 -5 0 -10 11 -10 25 0 23 -4 25 -45 25 l-45 0 0 75 c0 41 -4
143 -10 227 -5 84 -12 186 -14 226 l-4 72 69 0 69 0 0 -325z m-1832 263 l3
-36 -65 -4 -66 -3 0 37 0 37 53 4 c72 4 72 5 75 -35z m2800 -133 c-4 -213 -20
-222 -31 -17 -9 161 -7 182 18 182 13 0 15 -21 13 -165z m-2633 -10 l0 -150
43 -109 c32 -84 39 -112 30 -118 -12 -7 -48 -11 -48 -5 0 1 -16 48 -35 104
-19 57 -50 168 -70 248 -43 174 -40 188 33 183 l47 -3 0 -150z m2905 113 c7
-24 30 -108 52 -188 101 -370 103 -382 61 -388 -30 -4 -36 11 -73 182 -28 126
-29 139 -14 150 14 11 13 21 -14 115 -28 96 -55 147 -72 136 -4 -3 -10 4 -13
15 -4 17 0 20 29 20 31 0 34 -3 44 -42z m-2290 -218 l0 -240 -50 0 -50 0 0
240 0 240 50 0 50 0 0 -240z m838 43 l2 -173 -125 0 -125 0 0 -50 c0 -27 -4
-50 -9 -50 -20 0 -30 281 -11 310 7 10 10 -19 10 -92 l0 -108 120 0 121 0 -3
158 -3 157 -137 3 -137 3 -5 -43 c-3 -24 -8 -95 -12 -158 -3 -63 -11 -167 -17
-230 -11 -110 -13 -115 -36 -118 l-24 -4 6 84 c4 45 12 171 18 278 8 127 16
199 24 205 7 6 74 8 176 5 l164 -5 3 -172z m-1238 157 c0 -16 -7 -20 -30 -20
-23 0 -30 4 -30 20 0 16 7 20 30 20 23 0 30 -4 30 -20z m1294 -232 c3 -109 2
-198 -3 -198 -11 0 -21 165 -20 325 1 191 16 110 23 -127z m244 -30 c2 -274 2
-277 -19 -283 -11 -4 -25 -3 -29 2 -11 10 -16 536 -5 552 4 7 17 11 28 9 22
-3 22 -5 25 -280z m1070 9 l2 -258 -52 3 -53 3 4 250 c2 138 6 254 8 258 3 4
24 7 46 5 l42 -3 3 -258z m29 241 c-3 -8 -6 -5 -6 6 -1 11 2 17 5 13 3 -3 4
-12 1 -19z m509 -3 c4 -8 3 -26 0 -40 -6 -22 -12 -25 -51 -25 -39 0 -45 3 -51
25 -4 15 -1 32 6 40 17 20 89 20 96 0z m118 9 c14 -5 16 -36 16 -241 l0 -234
-52 3 -53 3 -3 232 -2 232 27 4 c48 7 51 7 67 1z m-4224 -194 c0 -104 3 -190
8 -190 4 0 6 85 4 190 -2 127 1 190 8 190 7 0 10 -77 10 -230 l0 -230 -37 0
-36 0 6 122 c4 66 7 170 7 230 0 89 3 108 15 108 13 0 15 -28 15 -190z m543
183 c-18 -2 -48 -2 -65 0 -18 2 -4 4 32 4 36 0 50 -2 33 -4z m957 -258 l0
-265 -30 0 -30 0 0 265 0 265 30 0 30 0 0 -265z m65 0 c0 -257 0 -260 -21
-263 -17 -2 -23 4 -28 29 -8 43 -8 484 1 493 4 4 16 6 28 4 20 -3 20 -9 20
-263z m63 -3 c2 -255 2 -262 -17 -262 -19 0 -20 9 -23 133 -2 73 -2 193 0 266
3 118 5 132 20 129 15 -3 17 -28 20 -266z m1146 226 c6 -35 46 -449 46 -480 0
-20 -28 -25 -35 -5 -2 6 -16 124 -30 261 -21 199 -24 251 -14 257 19 11 26 4
33 -33z m1550 26 c10 -4 16 -18 16 -40 0 -32 -2 -34 -35 -34 -33 0 -35 2 -35
34 0 40 19 53 54 40z m194 -194 c2 -107 0 -210 -3 -228 -6 -30 -9 -33 -38 -30
l-32 3 -12 115 c-6 63 -12 166 -12 228 l-1 113 48 -3 47 -3 3 -195z m-3940
-32 l-3 -223 -59 -3 c-41 -2 -62 1 -67 10 -10 15 -12 398 -3 422 5 12 21 16
70 16 l64 0 -2 -222z m2462 137 l0 -85 -93 0 -93 0 -11 77 c-6 43 -9 81 -7 85
3 5 50 8 105 8 l99 0 0 -85z m606 -99 c4 -14 3 -18 -4 -11 -10 10 -43 154 -41
184 0 9 9 -22 20 -68 10 -46 21 -93 25 -105z m292 162 c3 -16 -5 -18 -62 -18
-48 0 -66 4 -66 13 0 23 13 28 70 25 43 -2 56 -7 58 -20z m-2988 -249 l0 -260
-22 3 -23 3 -3 258 -2 257 25 0 25 0 0 -261z m1859 174 c0 -49 -2 -83 -4 -78
-8 24 -11 165 -3 165 4 0 8 -39 7 -87z m435 -87 c4 -90 4 -202 0 -250 -6 -82
-8 -86 -30 -86 l-24 0 0 168 c0 92 -3 204 -7 250 l-6 82 30 0 30 0 7 -164z
m-2121 137 c-7 -2 -19 -2 -25 0 -7 3 -2 5 12 5 14 0 19 -2 13 -5z m637 -43 l0
-50 -45 0 -45 0 0 50 0 50 45 0 45 0 0 -50z m1398 -193 c-2 -143 -7 -227 -13
-227 -6 0 -11 79 -13 212 -3 217 1 269 19 251 6 -6 8 -100 7 -236z m-551 6
l-2 -228 -42 -3 -43 -3 0 230 0 231 44 0 45 0 -2 -227z m1328 7 l0 -215 -60 0
-60 0 -3 218 -2 218 62 -3 63 -3 0 -215z m-1094 13 c4 -103 11 -205 15 -225 3
-22 2 -38 -4 -38 -5 0 -12 21 -16 48 -10 73 -20 418 -11 410 4 -4 11 -91 16
-195z m279 172 c0 -20 -5 -25 -25 -25 -20 0 -25 5 -25 25 0 20 5 25 25 25 20
0 25 -5 25 -25z m984 9 c3 -9 6 -89 6 -179 0 -90 -3 -170 -6 -179 -4 -11 -19
-16 -49 -16 -55 0 -55 0 -55 218 l0 172 49 0 c35 0 51 -4 55 -16z m-2974 -220
l0 -215 -52 3 -53 3 -3 215 -2 215 55 -3 55 -4 0 -214z m3210 71 l0 -135 -34
0 c-42 0 -42 2 -38 158 l3 112 35 0 34 0 0 -135z m219 68 c-1 -32 2 -111 6
-175 7 -116 7 -118 -14 -118 -21 0 -21 4 -21 175 0 146 2 175 15 175 11 0 14
-14 14 -57z m-1439 -169 c0 -180 -1 -195 -17 -192 -25 5 -32 56 -32 236 l-1
152 25 0 25 0 0 -196z m-1377 169 c-13 -2 -35 -2 -50 0 -16 2 -5 4 22 4 28 0
40 -2 28 -4z m2834 -50 c-3 -10 -5 -2 -5 17 0 19 2 27 5 18 2 -10 2 -26 0 -35z
m153 -138 c0 -159 -2 -186 -16 -192 -31 -12 -34 12 -27 195 6 168 8 182 25
182 17 0 18 -12 18 -185z m-4079 31 c8 -85 8 -121 0 -129 -20 -20 -25 4 -29
141 -3 167 12 161 29 -12z m1109 132 c0 -5 -20 -8 -45 -8 -25 0 -45 3 -45 8 0
4 20 7 45 7 25 0 45 -3 45 -7z m1278 -80 l-3 -63 -45 -3 c-25 -2 -65 -1 -89 3
-43 7 -43 7 -38 41 3 18 1 36 -4 39 -5 4 -9 14 -8 23 0 11 3 12 6 5 7 -18 23
-16 23 2 0 12 16 15 80 15 l81 0 -3 -62z m1750 54 c9 -7 12 -47 10 -168 -3
-151 -4 -159 -23 -159 -19 0 -20 8 -23 155 -3 182 0 195 36 172z m-3028 -152
l0 -150 -45 0 -45 0 0 150 0 150 45 0 45 0 0 -150z m1639 -48 c16 -61 26 -112
22 -112 -4 0 -20 48 -36 108 -37 147 -38 150 -26 132 5 -9 23 -66 40 -128z
m-1179 48 l0 -40 -123 0 -124 0 -1 32 c0 18 5 36 11 40 7 4 63 8 125 8 l112 0
0 -40z m828 -28 c5 -53 -9 -62 -104 -62 l-84 0 0 50 0 51 93 -3 92 -3 3 -33z
m1287 -22 c0 -32 -3 -35 -32 -38 -28 -3 -33 1 -39 22 -10 41 1 58 38 54 30 -3
33 -6 33 -38z m-2095 -35 l0 -25 -135 0 -135 0 0 25 0 25 135 0 135 0 0 -25z
m-880 -26 l0 -40 -47 3 c-48 3 -48 3 -51 41 l-3 37 50 0 51 0 0 -41z m-590
-24 c0 -14 -8 -29 -20 -35 -12 -7 -145 -9 -387 -8 l-368 3 -3 33 -3 32 390 0
391 0 0 -25z m1560 -1 c0 -8 -4 -14 -10 -14 -5 0 -10 9 -10 21 0 11 5 17 10
14 6 -3 10 -13 10 -21z m2275 -9 l0 -30 -297 -3 -298 -2 0 35 0 35 298 -2 297
-3 0 -30z m-2315 0 c0 -13 -28 -15 -190 -15 -162 0 -190 2 -190 15 0 13 28 15
190 15 162 0 190 -2 190 -15z m1270 -5 c0 -5 -22 -10 -50 -10 -27 0 -50 5 -50
10 0 6 23 10 50 10 28 0 50 -4 50 -10z m378 -2 c-3 -8 -27 -14 -61 -16 -46 -2
-57 0 -57 13 0 12 13 15 61 15 44 0 60 -3 57 -12z"/>
<path d="M3810 4880 c-11 -7 -3 -10 30 -9 34 0 40 2 25 9 -27 12 -37 12 -55 0z"/>
<path d="M2062 4035 c0 -16 2 -22 5 -12 2 9 2 23 0 30 -3 6 -5 -1 -5 -18z"/>
<path d="M2053 3935 c0 -22 2 -30 4 -17 2 12 2 30 0 40 -3 9 -5 -1 -4 -23z"/>
<path d="M4370 4080 l45 -6 -39 -5 c-28 -3 -40 -9 -42 -21 -2 -15 6 -18 42
-18 42 0 44 1 44 30 0 29 -1 30 -47 28 l-48 -1 45 -7z m13 -37 c-7 -2 -19 -2
-25 0 -7 3 -2 5 12 5 14 0 19 -2 13 -5z"/>
<path d="M678 4123 c18 -2 45 -2 60 0 15 2 0 4 -33 4 -33 0 -45 -2 -27 -4z"/>
<path d="M3408 3842 c2 -98 5 -181 7 -187 2 -5 4 72 4 172 1 100 -2 184 -6
186 -5 3 -7 -74 -5 -171z"/>
<path d="M4507 3538 c-21 -17 -7 -18 296 -18 275 0 317 2 317 15 0 18 12 17
-328 19 -234 1 -265 -1 -285 -16z"/>
<path d="M0 3450 c0 -36 3 -40 25 -40 16 0 25 -6 25 -15 0 -9 -9 -15 -25 -15
-14 0 -25 -4 -25 -10 0 -5 16 -10 36 -10 19 0 42 -6 50 -14 18 -19 30 -121 15
-130 -7 -5 -12 10 -13 46 -1 36 -3 42 -5 21 -4 -31 -7 -33 -44 -33 -21 0 -39
-4 -39 -10 0 -5 18 -10 40 -10 29 0 40 -4 40 -15 0 -11 -11 -15 -40 -15 -22 0
-40 -4 -40 -10 0 -5 11 -10 25 -10 24 0 25 -2 25 -70 0 -68 -1 -70 -25 -70
-47 0 -25 -18 31 -25 60 -7 70 -28 16 -33 -43 -4 -41 -22 3 -22 28 0 35 -4 35
-20 0 -18 -7 -20 -55 -20 -42 0 -55 -3 -55 -15 0 -13 25 -15 166 -15 l165 0
-3 -37 -3 -38 -162 -3 -163 -2 0 -25 0 -25 590 0 590 0 0 365 0 365 -349 0
c-192 0 -363 -3 -380 -6 l-32 -7 1 -316 c1 -174 1 -326 1 -339 -1 -19 -6 -23
-28 -20 -28 3 -28 4 -34 98 -4 52 -7 206 -8 343 l-1 247 -175 0 -175 0 0 -40z
m188 -283 l2 -247 -24 0 -25 0 5 238 c3 130 8 243 10 250 2 8 10 12 17 10 9
-4 13 -65 15 -251z m927 233 c-4 -6 5 -10 19 -10 l26 0 0 -295 0 -295 -204 0
c-215 0 -233 4 -224 47 3 16 21 18 193 23 105 3 173 7 153 8 -52 3 -59 22 -9
22 55 0 58 27 4 32 l-38 3 -3 195 c-2 107 0 214 3 238 6 41 7 42 46 42 24 0
38 -4 34 -10z m-785 -40 c0 -17 -7 -20 -42 -20 l-43 0 3 -210 c3 -202 2 -210
-16 -210 -19 0 -20 11 -24 208 -3 114 -1 217 4 230 6 19 14 22 63 22 48 0 55
-2 55 -20z m-2 -237 l-3 -198 -25 0 -25 0 -3 198 -2 197 30 0 30 0 -2 -197z
m472 165 c0 -18 3 -43 6 -55 l6 -23 -146 0 -146 0 0 49 c0 30 5 51 13 54 6 3
69 6 140 6 l127 1 0 -32z m20 -137 c0 -48 2 -47 -141 -43 l-109 3 0 33 c0 18
3 36 7 39 3 4 60 7 125 7 l118 0 0 -39z m90 -86 c7 -8 10 -22 6 -30 -4 -13
-37 -15 -211 -15 l-205 0 0 30 0 30 199 0 c164 0 201 -3 211 -15z m10 -120 l0
-55 -235 0 -235 0 0 55 0 55 235 0 235 0 0 -55z m-267 -172 c-68 -2 -178 -2
-245 0 -68 1 -13 3 122 3 135 0 190 -2 123 -3z m190 0 c-13 -2 -33 -2 -45 0
-13 2 -3 4 22 4 25 0 35 -2 23 -4z"/>
<path d="M1063 3393 c9 -2 23 -2 30 0 6 3 -1 5 -18 5 -16 0 -22 -2 -12 -5z"/>
<path d="M1090 3308 c0 -122 14 -308 21 -296 5 7 9 88 9 181 0 142 -2 167 -15
167 -11 0 -15 -12 -15 -52z"/>
<path d="M1063 3280 c0 -41 2 -58 4 -37 2 20 2 54 0 75 -2 20 -4 3 -4 -38z"/>
<path d="M1235 3143 c-4 -192 -5 -643 -2 -1005 6 -692 8 -668 -34 -668 -5 0
-9 113 -9 270 l0 270 -315 0 c-257 0 -315 2 -315 13 0 11 42 15 197 20 108 4
249 7 315 7 65 0 118 4 118 9 0 15 -181 21 -687 21 l-503 0 0 -59 c0 -44 4
-60 15 -65 20 -7 18 -96 -2 -96 -7 0 -13 -7 -13 -15 0 -8 9 -15 20 -15 19 0
20 -7 20 -171 0 -162 -1 -171 -20 -176 -11 -3 -20 -12 -20 -20 0 -12 53 -14
387 -10 214 3 508 2 656 0 l267 -5 0 -389 c0 -213 -4 -390 -8 -393 -9 -5 -18
155 -31 509 l-6 180 -633 3 -632 2 0 -100 c0 -93 1 -100 20 -100 27 0 25 -28
-2 -33 l-23 -4 23 -2 22 -1 0 -195 c0 -194 0 -196 -22 -205 -14 -5 216 -9 595
-9 l618 -1 -1 -353 c-1 -317 0 -352 15 -355 14 -3 15 14 9 182 l-7 186 46 0
47 0 3 -182 2 -183 3 188 2 187 -51 0 c-43 0 -50 3 -47 18 2 13 15 18 50 20
57 4 55 12 63 -233 4 -99 9 -182 11 -185 3 -2 3 91 2 208 -2 138 0 211 7 209
6 -2 11 -82 13 -206 1 -111 6 -200 10 -197 5 3 34 6 65 7 l57 2 0 179 0 178
-61 0 c-52 0 -60 2 -57 18 3 14 14 17 65 17 34 0 65 -4 69 -8 5 -4 7 -98 6
-208 -2 -171 0 -199 13 -199 13 0 15 20 15 120 l0 120 40 0 c22 0 40 5 40 10
0 6 -18 10 -40 10 -39 0 -40 1 -40 35 0 35 0 35 45 35 l45 0 0 -165 c0 -103 4
-165 10 -165 6 0 10 70 10 190 l0 190 35 0 35 0 0 -190 c0 -120 4 -190 10
-190 6 0 10 5 10 10 0 6 20 10 45 10 25 0 45 -4 45 -10 0 -5 7 -10 15 -10 13
0 15 21 15 125 l0 125 55 0 55 0 0 -125 c0 -113 7 -145 25 -115 3 5 11 7 18 5
7 -2 31 -6 55 -9 l42 -6 1 157 c0 87 3 152 6 146 3 -8 25 -13 59 -13 l54 0 0
-145 c0 -140 1 -145 21 -145 20 0 21 3 19 233 -1 127 -1 238 -1 245 1 8 19 12
56 12 l55 0 0 -245 c0 -211 2 -245 15 -245 13 0 15 25 15 161 l0 160 43 -3 42
-3 0 -158 c0 -118 3 -157 12 -157 10 0 13 58 15 243 l3 242 50 0 50 0 0 -40
c0 -40 0 -40 -37 -38 -21 1 -38 -2 -38 -7 0 -6 19 -11 43 -12 40 -1 39 -2 -13
-7 l-55 -6 55 -10 55 -9 -53 -4 c-63 -4 -60 -22 4 -22 l44 0 0 -165 c0 -101 4
-165 10 -165 6 0 11 92 12 243 l3 242 60 0 60 0 0 -243 c0 -224 1 -242 18
-242 9 0 17 7 17 15 0 13 29 15 200 15 171 0 200 -2 200 -15 0 -10 11 -15 35
-15 l35 0 2 235 c2 148 7 235 13 235 6 0 11 -87 13 -236 l2 -236 73 6 c39 3
101 8 136 12 40 4 67 2 74 -5 21 -21 26 -10 29 67 l3 77 73 3 72 3 0 -81 0
-81 33 3 32 3 3 156 c2 152 3 157 25 164 l22 8 -22 4 c-21 4 -23 10 -23 64 0
54 2 59 24 65 14 3 34 3 45 -1 20 -6 21 -12 21 -236 0 -146 4 -229 10 -229 6
0 10 65 10 175 l0 175 50 0 51 0 -7 -175 c-6 -159 -6 -175 9 -175 10 0 17 5
17 10 0 6 16 10 35 10 29 0 35 4 35 20 0 18 -4 20 -35 14 l-35 -6 0 142 0 142
35 -6 c22 -4 35 -3 35 4 0 5 -16 10 -35 10 -32 0 -35 2 -35 31 0 29 1 30 43
27 l42 -3 0 -198 c0 -178 2 -197 17 -197 9 0 20 5 23 10 8 13 245 13 245 0 0
-5 5 -10 10 -10 6 0 10 57 10 150 0 93 4 150 10 150 6 0 10 -57 10 -151 0 -97
4 -148 10 -144 6 3 10 15 10 25 0 27 23 30 170 27 l125 -2 3 -27 c2 -16 8 -28
13 -28 5 0 9 45 9 100 l0 100 49 0 c32 0 51 -5 54 -14 3 -7 3 -52 0 -100 -3
-55 -1 -86 5 -86 6 0 12 15 14 33 l3 32 68 3 c51 2 67 6 67 17 0 12 -15 15
-71 15 l-70 0 3 37 3 38 68 3 c67 3 67 3 67 32 l0 30 -70 0 -70 0 0 45 0 45
70 0 c63 0 70 2 70 19 0 17 -8 20 -52 23 -51 3 -53 4 -53 33 0 29 2 30 53 33
l52 3 0 38 0 38 -722 6 c-398 3 -1000 4 -1338 1 -675 -5 -1021 3 -1028 24 -3
9 194 12 960 12 736 0 967 3 976 12 7 7 12 40 12 80 0 79 3 76 -120 80 l-75 3
0 245 0 245 45 0 45 0 3 -177 2 -178 255 0 255 0 0 -30 0 -30 -267 0 c-156 0
-274 -4 -283 -10 -10 -6 45 -10 166 -10 99 0 391 -3 647 -7 l467 -6 0 174 0
174 -62 -4 c-35 -1 -66 -8 -70 -15 -4 -6 -8 -57 -8 -113 l0 -103 -30 0 -31 0
3 133 3 132 98 3 97 3 0 99 0 100 -1852 2 -1853 3 0 30 0 30 885 6 c487 3
1320 7 1853 8 960 1 967 1 967 21 0 17 -7 20 -45 20 l-45 0 0 63 0 62 45 -3
c28 -3 45 0 45 7 0 6 -19 11 -45 11 l-45 0 0 175 0 175 45 0 45 0 0 85 0 85
-295 0 -295 0 0 608 c0 334 -3 637 -7 675 l-6 67 -1637 0 -1638 0 -7 -347z
m2183 202 c2 -72 -2 -204 -8 -295 -7 -113 -7 -166 0 -168 11 -4 14 -199 4
-226 -3 -9 -12 -16 -19 -16 -9 0 -14 41 -19 153 -8 166 -7 667 1 680 3 4 12 7
21 5 15 -3 17 -22 20 -133z m-1928 34 l0 -40 -37 3 c-31 2 -39 7 -41 26 -6 39
5 52 43 52 34 0 35 -1 35 -41z m210 -19 l0 -60 -40 0 -40 0 0 60 0 60 40 0 40
0 0 -60z m98 -190 c1 -135 0 -255 -3 -268 -5 -19 -11 -23 -38 -20 l-32 3 -3
259 c-3 278 -2 279 48 274 l25 -3 3 -245z m100 10 c2 -129 0 -250 -3 -268 -6
-30 -9 -33 -38 -30 l-32 3 -3 255 c-1 140 0 261 3 268 3 8 17 12 37 10 l33 -3
3 -235z m697 220 c3 -11 3 -29 0 -40 -5 -17 -15 -20 -66 -20 l-59 0 0 40 0 40
59 0 c51 0 61 -3 66 -20z m290 -20 l0 -35 -132 -3 -133 -3 0 41 0 41 133 -3
132 -3 0 -35z m607 -232 c-3 -181 -8 -265 -16 -271 -6 -4 213 -6 487 -5 l497
3 0 -42 0 -43 -472 -2 c-366 -2 -472 -6 -476 -15 -3 -10 14 -13 62 -13 65 0
66 0 66 -27 0 -15 -10 -37 -22 -50 -19 -20 -31 -23 -100 -23 l-78 0 0 118 c0
65 3 234 7 375 6 253 7 257 27 257 22 0 22 0 18 -262z m783 52 c-1 -169 -3
-190 -24 -243 -19 -48 -26 -58 -44 -55 -22 3 -22 6 -25 233 -1 126 0 236 3
243 3 9 19 12 47 10 l43 -3 0 -185z m-2937 25 c-2 -103 0 -135 10 -135 9 0 12
33 12 130 0 123 1 130 20 130 19 0 20 -7 20 -122 0 -168 -11 -348 -22 -348 -4
0 -8 40 -8 89 0 126 -19 129 -22 4 l-2 -98 -5 80 -5 80 -6 -80 c-4 -51 -7 9
-8 163 -1 164 1 242 9 242 7 0 9 -45 7 -135z m2485 115 c6 -6 -33 -352 -49
-427 -4 -19 -11 -23 -45 -23 -26 0 -42 5 -46 15 -5 14 54 430 64 447 4 8 64
-1 76 -12z m-103 -15 c0 -31 -64 -385 -73 -404 -15 -31 -51 -40 -61 -15 -9 24
105 424 121 424 7 0 13 -2 13 -5z m-2232 -222 l-3 -218 -32 -3 -33 -3 0 220 0
221 35 0 35 0 -2 -217z m1104 63 c2 -84 2 -161 0 -170 -3 -13 -16 -16 -63 -16
l-59 0 0 170 0 170 60 0 59 0 3 -154z m298 15 c0 -76 -3 -153 -6 -170 l-6 -31
-129 0 -129 0 0 170 0 170 135 0 135 0 0 -139z m300 84 l0 -35 -120 0 c-119 0
-120 0 -126 24 -3 14 -3 30 1 35 4 7 52 11 126 11 l119 0 0 -35z m-1602 -177
l-3 -203 -35 0 -35 0 -3 203 -2 202 40 0 40 0 -2 -202z m2059 167 c4 -45 -99
-360 -117 -360 -13 0 -15 26 -18 155 -1 85 0 174 4 198 l5 43 62 -3 c61 -3 62
-4 64 -33z m478 3 c4 -17 4 -105 0 -195 l-7 -164 -47 3 -46 3 -3 180 c-1 98 0
185 2 192 3 8 23 13 50 13 42 0 45 -2 51 -32z m35 -150 c0 -122 -4 -178 -10
-168 -13 20 -13 350 0 350 6 0 10 -67 10 -182z m-2460 -29 l0 -200 -37 3 -38
3 -3 198 -2 197 40 0 40 0 0 -201z m2298 179 c3 -17 -67 -281 -90 -340 -11
-30 -34 -36 -62 -15 -17 13 -15 23 33 190 28 98 51 180 51 183 0 3 15 4 32 2
22 -2 34 -9 36 -20z m-1786 -158 c53 -91 97 -170 97 -175 1 -6 -12 -18 -28
-28 -29 -17 -30 -17 -49 10 -33 49 -172 311 -172 325 0 20 22 39 40 36 8 -2
58 -77 112 -168z m2242 157 c18 -13 15 -23 -50 -185 -72 -182 -79 -190 -124
-154 l-21 17 61 145 c34 80 66 155 71 168 10 25 36 29 63 9z m-2423 -27 c31
-41 158 -322 152 -336 -6 -17 -42 -29 -53 -17 -5 4 -48 87 -95 182 -81 164
-86 176 -69 188 25 18 43 13 65 -17z m1207 -48 l3 -23 -123 3 c-119 3 -123 4
-126 26 l-3 23 123 -3 c119 -3 123 -4 126 -26z m0 -96 c2 -27 -1 -53 -5 -57
-5 -5 -70 -6 -146 -2 l-137 6 0 54 0 54 143 -3 142 -3 3 -49z m-1248 14 c13
-25 25 -160 16 -194 -5 -21 -12 -26 -36 -26 l-30 0 0 120 c0 113 1 120 20 120
10 0 24 -9 30 -20z m1437 -152 c-2 -35 -3 -9 -3 57 0 66 1 94 3 63 2 -32 2
-86 0 -120z m-1332 -77 c-8 -8 -22 15 -44 74 -35 94 -31 100 9 16 22 -46 38
-87 35 -90z m1175 119 c0 -6 -58 -10 -155 -10 -97 0 -155 4 -155 10 0 6 58 10
155 10 97 0 155 -4 155 -10z m-682 -77 l-3 -48 -55 0 -55 0 -3 48 -3 47 61 0
61 0 -3 -47z m298 5 c1 -20 -2 -42 -6 -48 -4 -7 -48 -10 -131 -8 l-124 3 -3
48 -3 48 133 -3 133 -3 1 -37z m384 27 c0 -13 -24 -15 -155 -15 -131 0 -155 2
-155 15 0 13 24 15 155 15 131 0 155 -2 155 -15z m-5 -60 c0 -19 -8 -20 -135
-23 -139 -2 -168 4 -157 32 6 14 25 16 149 14 135 -3 143 -4 143 -23z m-810
-43 l850 -7 3 -38 c6 -72 72 -67 -879 -67 -566 0 -859 3 -859 10 0 6 116 10
327 10 224 0 324 3 317 10 -7 7 -120 10 -327 8 l-317 -3 0 33 0 32 -145 0
c-131 0 -145 2 -145 18 0 16 11 16 162 9 90 -4 546 -11 1013 -15z m-537 -153
c2 -5 316 -9 698 -9 687 0 694 0 694 -20 0 -20 -8 -20 -997 -22 l-998 -3 -3
-277 -2 -278 730 0 730 0 1 -72 c1 -40 4 -63 6 -50 4 21 9 23 56 20 48 -3 52
-5 55 -29 l3 -26 -122 -6 c-194 -11 -1434 -8 -1463 3 l-25 9 -3 383 c-2 211
-1 387 1 391 4 11 635 -3 639 -14z m2402 -64 c0 -33 -2 -35 -35 -35 -32 0 -35
3 -35 28 0 16 3 32 7 35 3 4 19 7 35 7 25 0 28 -3 28 -35z m118 -155 c1 -96 0
-185 -3 -197 -5 -20 -12 -23 -50 -23 l-45 0 0 201 0 200 48 -3 47 -3 3 -175z
m-506 120 l-4 -50 -143 0 c-159 0 -161 1 -149 66 l6 34 147 0 146 0 -3 -50z
m288 -94 c0 -156 -4 -168 -52 -159 l-28 5 0 149 0 149 40 0 40 0 0 -144z
m-799 -141 c-2 -126 -5 -232 -7 -234 -2 -2 -10 -1 -19 2 -13 6 -15 38 -15 237
l0 231 23 -3 22 -3 -4 -230z m-1846 180 l0 -40 -42 0 -43 0 0 43 0 43 43 -3
c42 -3 42 -3 42 -43z m-225 -195 c0 -147 -4 -230 -10 -230 -6 0 -10 83 -10
230 0 147 4 230 10 230 6 0 10 -83 10 -230z m2970 115 l0 -115 -35 0 -35 0 0
115 0 115 35 0 35 0 0 -115z m-2856 68 c0 -18 -1 -118 -2 -223 l-2 -190 -45 0
-45 0 0 226 0 225 48 -3 c46 -3 47 -4 46 -35z m431 -200 c82 -195 86 -210 52
-218 -14 -4 -31 -4 -37 0 -14 8 -64 117 -81 175 -12 39 -28 53 -30 28 -1 -7
-2 -53 -3 -103 l-1 -90 -28 -3 -27 -3 2 193 3 192 25 13 c35 18 45 3 125 -184z
m1180 142 l0 -50 -109 -3 c-119 -3 -126 0 -126 54 0 49 13 55 130 52 l105 -3
0 -50z m863 -2 l-3 -58 -135 0 -135 0 -3 44 c-5 73 -8 71 143 71 l136 0 -3
-57z m-2218 -163 l0 -190 -60 0 -60 0 0 190 0 190 60 0 60 0 0 -190z m578 158
c3 -17 -111 -315 -132 -344 -12 -15 -18 -17 -33 -8 -10 6 -19 18 -21 27 -3 16
112 321 130 344 12 15 52 1 56 -19z m251 18 c7 -8 11 -34 9 -58 l-3 -43 -117
-3 c-133 -3 -131 -4 -107 81 l10 37 98 0 c73 0 102 -4 110 -14z m-991 -6 c22
0 22 0 22 -180 l0 -180 -45 0 -45 0 0 186 0 186 23 -6 c12 -3 32 -6 45 -6z
m1920 -98 c3 -77 2 -82 -18 -82 -19 0 -20 6 -20 86 0 76 2 85 18 82 14 -3 17
-16 20 -86z m-328 -1 c0 -26 -22 -29 -177 -31 -132 -1 -151 4 -139 35 4 12 34
15 161 15 145 0 155 -1 155 -19z m825 -6 c0 -6 -52 -11 -130 -13 -137 -3 -195
2 -195 19 0 6 61 8 163 7 99 -2 162 -7 162 -13z m-1397 -30 c9 -3 12 -19 10
-47 l-3 -43 -142 -3 -141 -3 -7 31 c-11 51 1 69 48 72 52 4 217 -1 235 -7z
m1075 -22 l-3 -38 10 33 11 32 159 0 c147 0 160 -1 170 -19 7 -13 7 -28 0 -45
l-10 -26 -189 0 c-206 0 -201 -1 -201 59 0 33 7 41 35 41 18 0 21 -5 18 -37z
m-423 7 c0 -5 -4 -10 -9 -10 -6 0 -11 -24 -13 -52 l-3 -53 -187 -3 -188 -2 0
60 0 60 193 3 c105 1 195 3 200 5 4 1 7 -2 7 -8z m950 0 c0 -7 7 -7 21 0 19
11 20 9 17 -32 -3 -42 -4 -43 -38 -43 -34 0 -35 1 -38 43 -3 37 -1 42 17 42
12 0 21 -5 21 -10z m140 -35 c0 -33 -2 -35 -35 -35 -33 0 -35 2 -35 35 0 33 2
35 35 35 33 0 35 -2 35 -35z m-107 -62 l227 -6 0 -39 0 -38 -495 0 -495 0 0
45 0 45 268 0 c148 0 371 -3 495 -7z m-1643 -63 l0 -50 -129 0 c-108 0 -130 3
-135 16 -8 21 -8 69 1 77 3 4 64 7 135 7 l128 0 0 -50z m651 10 c10 -6 19 -21
19 -34 l0 -24 -180 -4 c-99 -2 -196 -2 -215 0 -36 4 -47 25 -20 36 8 3 15 12
15 21 0 13 25 15 181 15 105 0 188 -4 200 -10z m847 -86 c57 -16 9 -24 -138
-24 -146 0 -173 4 -153 23 8 9 260 9 291 1z m940 -307 l2 -308 -22 3 -23 3 -3
295 c-1 162 0 301 3 308 3 7 13 12 22 10 17 -3 18 -27 21 -311z m-1678 258 l0
-45 -257 2 -258 3 -3 28 c-7 59 -15 57 263 57 l255 0 0 -45z m1608 -267 l-3
-293 -40 0 -40 0 -3 293 -2 292 45 0 45 0 -2 -292z m-118 -23 l0 -275 -50 0
-50 0 0 275 0 275 50 0 50 0 0 -275z m-4295 0 l0 -260 -25 0 -25 0 -3 263 -2
263 27 -3 28 -3 0 -260z m4003 208 c3 -49 1 -53 -20 -54 -23 -1 -23 -1 2 -9
19 -6 11 -8 -32 -9 l-58 -1 0 66 0 65 53 -3 52 -3 3 -52z m162 -213 l0 -271
-62 3 -63 3 -3 268 -2 267 65 0 65 0 0 -270z m-1265 5 l0 -250 -32 0 c-20 0
-33 -5 -33 -12 0 -7 -4 -13 -10 -13 -11 0 -15 487 -4 515 5 12 17 15 43 13
l36 -3 0 -250z m-3127 218 c-4 -22 -57 -29 -88 -13 -32 17 -14 30 41 30 43 0
50 -3 47 -17z m3340 -146 l3 -127 -61 0 -60 0 0 124 0 125 48 4 c26 2 52 3 57
2 6 -1 11 -54 13 -128z m-3338 88 c0 -22 -4 -25 -35 -25 l-35 0 0 -201 c0
-186 -1 -200 -17 -197 -20 4 -19 -4 -15 293 l2 155 50 0 c47 0 50 -2 50 -25z
m648 -37 c5 -44 -14 -70 -51 -66 -28 3 -32 7 -35 36 -5 53 3 64 45 60 33 -3
38 -7 41 -30z m3219 26 c19 -5 32 -36 88 -203 64 -195 65 -196 44 -213 -11 -9
-25 -15 -32 -12 -14 5 -110 207 -158 332 -28 70 -30 85 -18 93 16 10 44 11 76
3z m-3069 -18 c-10 -7 -18 -25 -18 -39 0 -34 -11 -40 -65 -31 -36 5 -46 11
-51 30 -12 46 0 54 78 54 63 -1 71 -2 56 -14z m2002 -14 c0 -15 -8 -19 -39
-20 -25 -1 -41 3 -44 12 -8 20 2 26 45 26 30 0 38 -4 38 -18z m115 4 c26 -19
13 -46 -24 -46 -16 0 -36 -3 -45 -6 -12 -5 -16 1 -16 24 0 41 46 57 85 28z
m-2755 -175 c0 -99 -3 -186 -6 -195 -3 -9 -15 -16 -25 -16 -18 0 -19 10 -19
195 l0 195 25 0 25 0 0 -179z m1076 164 c4 -8 3 -26 0 -40 -6 -23 -11 -25 -66
-25 l-60 0 0 40 0 40 60 0 c45 0 62 -4 66 -15z m1402 -32 l-3 -48 -100 0 -100
0 -3 48 -3 47 106 0 106 0 -3 -47z m324 -161 c-2 -111 -8 -190 -13 -186 -10 6
-12 377 -2 388 16 16 19 -20 15 -202z m38 8 c0 -127 -4 -200 -10 -200 -6 0
-10 73 -10 200 0 127 4 200 10 200 6 0 10 -73 10 -200z m1227 193 c-10 -10
-107 -11 -107 -1 0 4 26 8 57 8 31 0 53 -3 50 -7z m-4227 -193 l0 -190 -25 0
-24 0 -3 190 -3 190 28 0 27 0 0 -190z m478 28 l3 -148 -51 0 -50 0 0 151 0
150 48 -3 47 -3 3 -147z m1562 124 l22 -18 -32 -75 c-53 -122 -132 -270 -146
-276 -8 -3 -25 2 -39 11 l-24 16 23 52 c81 182 146 308 159 308 8 0 25 -8 37
-18z m2188 -164 l-3 -183 -50 0 -50 0 -3 183 -2 182 55 0 55 0 -2 -182z
m-2123 155 c-4 -10 -10 -83 -12 -163 -5 -175 -7 -186 -35 -193 -41 -11 -50 9
-46 107 3 80 8 102 42 179 22 48 43 87 49 87 5 0 6 -8 2 -17z m691 -330 c-3
-7 -21 -13 -41 -13 l-35 0 -2 135 c-1 74 -2 152 -2 173 -1 36 0 37 39 42 l40
5 3 -165 c1 -90 0 -170 -2 -177z m625 272 c4 -38 8 -117 10 -175 l4 -105 -25
0 c-31 0 -36 24 -46 197 -8 142 -4 161 28 156 21 -3 24 -10 29 -73z m-1621
-120 l0 -175 -34 0 c-30 0 -34 4 -40 31 -8 42 -8 304 1 312 3 4 21 7 40 7 l33
0 0 -175z m1120 -12 l0 -154 -42 3 -43 3 -3 155 -2 155 45 -3 45 -4 0 -155z
m-2100 107 l0 -51 -127 3 -128 3 -3 48 -3 47 130 0 131 0 0 -50z m643 26 c4
-6 6 -24 5 -41 l-3 -30 -212 -3 -213 -2 -6 24 c-14 56 -7 61 101 66 144 7 319
0 328 -14z m2255 2 c3 -16 -6 -18 -92 -18 -52 0 -98 4 -101 10 -15 24 10 31
98 28 78 -3 92 -6 95 -20z m-1071 -23 c3 -9 3 -18 0 -22 -7 -6 -209 -4 -215 2
-3 2 -2 11 1 20 9 22 205 22 214 0z m1083 -40 l0 -26 -112 3 c-109 3 -113 4
-116 26 -3 22 -2 22 112 22 l116 0 0 -25z m-1125 -26 c4 -11 5 -23 2 -26 -3
-2 -70 -5 -149 -5 l-143 0 -3 26 -3 26 145 0 c138 0 145 -1 151 -21z m735 -77
c0 -118 -2 -122 -66 -122 l-54 0 0 103 0 102 60 -3 60 -4 0 -76z m-1810 23 c0
-42 -1 -44 -32 -49 -18 -3 -51 -4 -73 -2 -22 1 -120 3 -217 4 l-178 2 0 45 0
45 250 0 250 0 0 -45z m-755 -10 l0 -40 -99 -3 c-109 -3 -116 0 -116 56 l0 33
108 -3 107 -3 0 -40z m2985 5 l0 -40 -140 0 -140 0 0 40 0 40 140 0 140 0 0
-40z m-1145 -20 l0 -25 -181 -3 c-152 -2 -183 0 -194 13 -7 8 -10 22 -6 30 5
13 32 15 193 13 l188 -3 0 -25z m-977 -92 l3 -48 -235 0 -236 0 0 50 0 50 233
-2 232 -3 3 -47z m2272 43 c0 -5 -3 -23 -6 -40 l-6 -31 -214 0 c-197 0 -214 1
-214 18 0 9 -3 27 -6 40 l-6 22 226 0 c124 0 226 -4 226 -9z m-3112 -33 l3
-27 -93 -3 c-51 -2 -99 -2 -105 0 -14 4 -18 44 -6 56 4 4 50 5 103 4 95 -3 95
-3 98 -30z m1820 -10 l-3 -43 -206 -3 -207 -2 -6 35 c-4 19 -4 40 -1 45 4 6
89 10 216 10 l210 0 -3 -42z m-2138 7 c0 -24 -3 -25 -55 -25 -47 0 -55 3 -55
18 0 28 9 32 62 32 45 0 48 -2 48 -25z m2570 -470 c0 -191 -4 -305 -10 -305
-8 0 -20 582 -12 603 2 4 7 7 13 7 5 0 9 -121 9 -305z m1250 250 c0 -21 -5
-25 -30 -25 -22 0 -30 5 -30 18 0 25 9 32 37 32 18 0 23 -5 23 -25z m-4360
-195 c0 -203 -1 -210 -20 -210 -19 0 -20 7 -20 210 0 203 1 210 20 210 19 0
20 -7 20 -210z m218 -7 l2 -203 -50 0 -50 0 0 198 c0 109 3 202 7 206 4 4 25
6 48 4 l40 -3 3 -202z m182 2 c0 -198 -1 -205 -20 -205 -19 0 -20 7 -20 205 0
198 1 205 20 205 19 0 20 -7 20 -205z m4004 173 c3 -13 6 -98 6 -190 0 -147
-2 -168 -16 -168 -14 0 -16 21 -13 190 4 180 9 219 23 168z m136 -13 c0 -35 0
-35 -45 -35 -45 0 -45 0 -45 35 0 35 0 35 45 35 45 0 45 0 45 -35z m50 -161
c0 -157 -2 -184 -15 -184 -13 0 -15 27 -15 183 0 101 3 187 6 190 19 19 24
-21 24 -189z m-4650 -9 l0 -195 -30 0 -30 0 0 195 0 195 30 0 30 0 0 -195z
m2090 180 c0 -13 -39 -15 -295 -15 -256 0 -295 2 -295 15 0 13 39 15 295 15
256 0 295 -2 295 -15z m1390 0 c0 -11 -12 -15 -50 -15 -38 0 -50 4 -50 15 0
11 12 15 50 15 38 0 50 -4 50 -15z m-3560 -185 c0 -156 -3 -190 -14 -190 -8 0
-16 6 -18 13 -7 20 -10 345 -3 357 3 5 13 10 21 10 12 0 14 -31 14 -190z m478
3 l-3 -188 -47 -3 -48 -3 0 184 c0 101 3 187 7 190 3 4 26 7 50 7 l43 0 -2
-187z m252 -3 l0 -190 -50 0 -50 0 0 190 0 190 50 0 50 0 0 -190z m230 0 l0
-190 -25 0 -25 0 0 190 0 190 25 0 25 0 0 -190z m454 184 c10 -4 16 -18 16
-35 0 -28 -2 -29 -50 -29 -48 0 -50 1 -50 28 0 16 3 32 7 35 8 9 56 9 77 1z
m1204 -36 c-3 -42 -4 -43 -38 -43 -34 0 -35 1 -38 43 l-3 42 41 0 41 0 -3 -42z
m200 -217 c3 -180 1 -261 -7 -265 -8 -5 -11 68 -11 258 0 146 3 266 8 266 4 0
9 -116 10 -259z m90 -3 l-3 -263 -32 -3 -33 -3 0 153 c0 84 -3 204 -7 266 l-6
112 42 0 41 0 -2 -262z m182 242 c0 -14 -7 -20 -24 -20 -23 0 -41 22 -29 34 4
3 17 6 30 6 16 0 23 -6 23 -20z m84 14 c13 -5 16 -26 18 -113 l2 -106 6 110
c4 73 6 24 6 -150 0 -205 -1 -230 -6 -120 l-6 140 -2 -142 -2 -143 -29 0 c-17
0 -31 6 -35 16 -8 21 -8 499 1 507 8 9 27 9 47 1z m254 -169 c4 -196 -5 -355
-20 -355 -6 0 -7 8 -3 18 4 9 9 112 12 228 5 183 4 216 -11 244 -20 41 -20 42
2 38 15 -3 17 -21 20 -173z m-2120 -122 l2 -283 -24 -6 c-14 -3 -30 -3 -35 1
-7 4 -11 102 -11 291 l0 285 33 -3 32 -3 3 -282z m1456 281 c14 -5 16 -33 16
-208 0 -110 -3 -225 -6 -253 -7 -52 -8 -53 -39 -53 -25 0 -34 5 -39 23 -8 29
-8 426 0 466 7 32 29 40 68 25z m896 -194 l0 -200 -39 0 -38 0 -5 88 c-3 48
-3 138 0 200 l5 112 38 0 39 0 0 -200z m740 186 c0 -11 -15 -16 -52 -18 l-53
-3 -3 -156 -2 -157 -31 -6 c-18 -3 -125 -6 -240 -6 -164 0 -209 3 -209 13 0
10 45 12 218 9 176 -4 220 -2 229 9 7 9 12 72 15 162 3 167 3 167 81 167 34 0
47 -4 47 -14z m-3356 -18 c8 -34 36 -283 36 -313 0 -16 -6 -25 -15 -25 -8 0
-15 8 -15 18 0 22 -28 267 -35 310 -5 24 -2 32 9 32 9 0 18 -10 20 -22z m1476
-93 l0 -115 -40 0 -40 0 0 115 0 115 40 0 40 0 0 -115z m1990 -47 c0 -90 -4
-169 -9 -176 -5 -8 -21 -12 -37 -10 -26 3 -29 7 -32 43 -2 22 -1 100 3 173 l7
132 34 0 34 0 0 -162z m-4272 -25 l2 -173 -35 0 -35 0 0 176 0 175 33 -3 32
-3 3 -172z m3322 87 l0 -80 -50 0 -50 0 0 80 0 80 50 0 50 0 0 -80z m-470 50
c0 -15 -7 -20 -25 -20 -18 0 -25 5 -25 20 0 15 7 20 25 20 18 0 25 -5 25 -20z
m-2205 -150 l0 -155 -65 0 -65 0 -3 158 -3 158 68 -3 68 -3 0 -155z m1323 146
c5 -6 -24 -129 -78 -333 l-33 -123 -49 0 c-31 0 -50 5 -54 13 -4 11 43 215 97
421 l10 39 51 -6 c28 -4 53 -9 56 -11z m800 -218 l-3 -233 -37 -3 -38 -3 0
235 0 236 40 0 40 0 -2 -232z m1672 78 c0 -133 -1 -144 -19 -149 -10 -2 -31
-2 -45 0 l-26 5 0 144 0 144 45 0 45 0 0 -144z m-3260 99 c0 -23 -4 -25 -45
-25 -41 0 -45 2 -45 25 0 23 4 25 45 25 41 0 45 -2 45 -25z m108 -223 l2 -243
-42 3 -43 3 -3 234 c-3 255 -3 253 53 249 l30 -3 3 -243z m1092 163 l0 -75
-40 0 -40 0 0 75 0 75 40 0 40 0 0 -75z m474 53 c8 -30 8 -322 0 -370 -5 -31
-11 -38 -29 -38 -13 0 -26 7 -29 16 -3 9 -6 105 -6 215 l0 199 29 0 c21 0 30
-6 35 -22z m-1406 -80 l3 -58 -54 0 -55 0 -6 43 c-10 68 -2 78 58 75 l51 -3 3
-57z m3322 -97 c0 -166 2 -161 -71 -161 l-39 0 0 149 c0 165 -2 159 68 160
l42 1 0 -149z m-3590 89 l0 -50 -45 0 -45 0 0 50 0 50 45 0 45 0 0 -50z m858
-147 l-3 -168 -30 0 -30 0 -3 168 -2 167 35 0 35 0 -2 -167z m140 3 c2 -104
-1 -153 -9 -163 -8 -9 -27 -13 -58 -11 l-46 3 -3 163 -3 163 58 -3 58 -3 3
-149z m-578 89 l0 -46 -57 3 c-55 3 -58 4 -61 31 -6 49 3 57 63 57 l55 0 0
-45z m1710 -15 l0 -50 -45 0 -45 0 0 50 0 50 45 0 45 0 0 -50z m-930 -99 c0
-66 -3 -126 -6 -135 -4 -10 -18 -16 -40 -16 l-34 0 0 135 0 135 40 0 40 0 0
-119z m-1200 -51 l0 -160 -29 0 c-62 0 -61 -2 -61 166 l0 154 45 0 45 0 0
-160z m753 -98 c-23 -17 -59 -11 -55 8 2 8 18 67 35 131 l32 117 3 -121 c2
-107 1 -123 -15 -135z m347 133 c0 -125 0 -125 -25 -131 -52 -13 -55 -5 -55
131 l0 125 40 0 40 0 0 -125z m-832 -42 l-3 -148 -50 0 -50 0 -3 148 -3 147
56 0 56 0 -3 -147z m142 92 c0 -11 -12 -15 -50 -15 -38 0 -50 4 -50 15 0 11
12 15 50 15 38 0 50 -4 50 -15z m1720 -6 c0 -6 -15 -10 -32 -9 -53 3 -57 -2
-8 -10 l45 -7 -47 -1 c-42 -2 -48 1 -48 18 0 17 7 20 45 20 25 0 45 -5 45 -11z
m-1710 -118 c0 -107 -2 -111 -59 -111 -52 0 -59 15 -53 118 l4 92 54 0 54 0 0
-99z m1710 8 l0 -59 -45 0 -45 0 0 63 0 62 45 -3 45 -4 0 -59z m1300 35 l0
-34 -209 0 -209 0 -6 25 c-4 14 -4 30 -1 36 4 6 89 9 216 9 l209 -1 0 -35z
m-3722 -41 l-3 -58 -582 -3 -583 -2 0 60 0 60 585 0 586 0 -3 -57z m2720 -145
l3 -58 -961 0 -960 0 0 60 0 60 958 -2 957 -3 3 -57z m-2583 -99 c33 2 134 7
225 11 l165 7 -217 1 -218 2 0 35 0 35 310 0 310 0 0 -54 c0 -52 -1 -54 -31
-60 -40 -8 -176 -8 -422 1 l-197 6 2 61 1 61 6 -54 6 -55 60 3z m1170 -124 l0
-60 -42 -3 -43 -3 0 66 0 66 43 -3 42 -3 0 -60z m668 56 c5 -1 7 -20 5 -43
l-3 -43 -134 -3 c-142 -3 -151 0 -151 45 0 43 18 48 151 46 68 -1 128 -2 132
-2z m-1535 -48 l3 -43 -45 0 -46 0 0 46 0 45 43 -3 c42 -3 42 -3 45 -45z
m2137 27 c3 -6 3 -19 0 -30 -5 -17 -15 -20 -70 -20 -48 0 -64 4 -69 16 -15 39
-8 44 63 44 39 0 73 -5 76 -10z m283 -32 c3 -27 2 -28 -47 -28 -47 0 -51 2
-51 23 0 33 9 38 55 35 35 -3 40 -6 43 -30z m217 20 c2 -7 9 -89 14 -183 l9
-170 -3 183 -4 182 59 0 60 0 0 -34 c0 -56 -8 -66 -51 -66 l-39 0 0 -64 c0
-88 11 -186 21 -186 5 0 9 54 9 120 l0 120 25 0 25 0 0 -150 0 -151 -97 3 -98
3 -3 197 -2 197 22 4 c42 8 49 7 53 -5z m170 -46 c-2 -249 -6 -342 -15 -342
-6 0 -10 74 -10 201 0 156 3 200 13 197 7 -3 12 -24 12 -56z m355 -17 l0 -75
-55 0 -55 0 0 75 0 75 55 0 55 0 0 -75z m-1386 49 c15 -39 7 -54 -29 -54 -33
0 -35 2 -35 35 0 32 3 35 29 35 17 0 31 -6 35 -16z m146 -54 l0 -70 -65 0 -65
0 0 70 0 70 65 0 65 0 0 -70z m-1470 -140 l0 -200 -45 0 -45 0 0 193 c0 107 3
197 7 200 3 4 24 7 45 7 l38 0 0 -200z m1516 163 c16 -21 19 -93 4 -93 -6 0
-10 -48 -10 -125 0 -77 -4 -125 -10 -125 -6 0 -10 67 -10 180 0 99 3 180 6
180 4 0 13 -8 20 -17z m1332 -17 c4 -28 3 -28 -47 -25 -28 2 -51 1 -51 -3 0
-5 24 -9 53 -10 l52 -1 -55 -6 c-59 -6 -48 -21 16 -21 l35 0 -3 -47 -3 -48
-52 -3 -53 -3 0 101 0 101 53 -3 c49 -3 52 -5 55 -32z m-3098 -166 l0 -180
-45 0 -45 0 0 180 0 180 45 0 45 0 0 -180z m140 145 l0 -36 -57 3 c-46 2 -58
7 -61 21 -7 38 5 47 63 47 l55 0 0 -35z m258 -2 l3 -31 -60 -4 -61 -3 0 38 0
38 58 -3 c56 -3 57 -4 60 -35z m1550 -10 l-3 -48 -75 0 -75 0 -3 42 c-3 47 0
48 106 52 l53 1 -3 -47z m885 24 c3 -7 3 -25 0 -40 -5 -26 -7 -27 -79 -27
l-74 0 0 40 0 40 74 0 c52 0 75 -4 79 -13z m-3033 -12 c0 -11 -12 -15 -45 -15
-33 0 -45 4 -45 15 0 11 12 15 45 15 33 0 45 -4 45 -15z m1485 -40 l0 -40
-125 0 -125 0 -3 28 c-7 56 -3 58 130 55 l123 -3 0 -40z m-1635 -125 l0 -160
-49 0 -48 0 -7 46 c-3 26 -6 98 -6 160 l0 114 55 0 55 0 0 -160z m1930 140 c0
-16 -7 -20 -35 -20 -28 0 -35 4 -35 20 0 16 7 20 35 20 28 0 35 -4 35 -20z
m-1440 -40 c0 -18 -7 -20 -55 -20 -67 0 -74 19 -7 22 l47 1 -50 7 -50 7 58 1
c51 2 57 0 57 -18z m223 3 c-13 -2 -33 -2 -45 0 -13 2 -3 4 22 4 25 0 35 -2
23 -4z m1221 -90 c4 -49 8 -109 10 -135 4 -57 -10 -73 -54 -63 l-30 7 0 139 0
139 34 0 34 0 6 -87z m136 -42 l0 -119 -51 -7 c-27 -4 -52 -5 -54 -4 -2 2 -6
59 -10 127 l-8 122 62 0 61 0 0 -119z m225 59 l0 -55 -72 -3 -73 -3 0 55 c0
34 5 56 13 60 6 2 39 4 72 3 l60 -2 0 -55z m885 10 l0 -51 -77 3 -78 3 -3 33
c-6 58 0 62 83 62 l75 0 0 -50z m78 3 c-3 -46 -4 -48 -35 -51 -33 -3 -33 -3
-33 41 0 52 4 57 42 57 28 0 29 -1 26 -47z m-2790 20 c-15 -2 -42 -2 -60 0
-18 2 -6 4 27 4 33 0 48 -2 33 -4z m1233 -7 c3 -3 3 -23 1 -45 l-4 -41 -153 0
c-147 0 -154 1 -160 21 -4 11 -4 31 -1 45 l6 24 154 0 c84 0 155 -2 157 -4z
m1619 -131 l0 -45 -55 0 -55 0 0 35 c0 31 -3 35 -26 35 -24 0 -26 -3 -22 -35
l4 -35 -57 0 c-80 0 -89 5 -89 51 l0 39 150 0 150 0 0 -45z m-1590 -25 l0 -50
-200 0 -200 0 0 50 0 50 200 0 200 0 0 -50z"/>
<path d="M3463 3035 c0 -38 2 -53 4 -32 2 20 2 52 0 70 -2 17 -4 1 -4 -38z"/>
<path d="M3363 1900 c0 -25 2 -35 4 -22 2 12 2 32 0 45 -2 12 -4 2 -4 -23z"/>
<path d="M3361 1834 c0 -11 3 -14 6 -6 3 7 2 16 -1 19 -3 4 -6 -2 -5 -13z"/>
<path d="M3363 1625 c0 -38 2 -53 4 -32 2 20 2 52 0 70 -2 17 -4 1 -4 -38z"/>
<path d="M2961 978 c1 -35 4 -88 9 -118 6 -46 7 -36 9 63 0 72 -3 117 -9 117
-6 0 -10 -27 -9 -62z"/>
<path d="M4552 140 c0 -14 2 -19 5 -12 2 6 2 18 0 25 -3 6 -5 1 -5 -13z"/>
<path d="M4560 3436 c0 -26 6 -48 15 -56 13 -11 15 -91 15 -611 l0 -599 262 2
c198 2 262 6 266 16 3 9 -29 12 -136 12 -147 0 -173 8 -158 46 6 15 22 16 151
10 127 -6 145 -5 145 9 0 11 -11 15 -45 15 l-45 0 0 174 0 175 48 4 47 3 -48
2 -48 2 3 48 3 47 43 -3 42 -4 0 66 0 66 -250 0 c-216 0 -250 2 -250 15 0 13
34 15 250 15 216 0 250 2 250 15 0 13 -34 15 -246 15 l-245 0 3 23 c3 22 3 22
248 27 l245 6 -247 2 c-241 2 -248 3 -248 22 0 19 7 20 245 20 l245 0 0 90 0
90 -75 0 c-68 0 -75 2 -75 20 0 18 7 20 78 21 l77 2 -68 8 c-38 4 -72 10 -75
14 -10 10 20 25 50 25 22 0 27 5 30 28 2 21 9 28 31 30 15 2 27 9 27 18 0 11
-45 14 -267 16 -230 3 -268 5 -268 18 0 13 38 15 268 18 l267 2 0 30 0 30
-280 0 -280 0 0 -44z m438 -253 l112 -6 0 -69 0 -68 -237 2 -238 3 -3 59 c-2
32 -1 65 2 72 6 16 165 19 364 7z m-4 -459 c3 -9 6 -36 6 -60 l0 -44 -57 0
c-42 0 -54 -3 -46 -11 6 -6 32 -10 57 -8 25 3 46 1 46 -4 0 -4 -28 -7 -62 -5
-50 2 -63 6 -66 21 -3 15 5 17 57 17 39 0 61 4 61 11 0 8 -19 10 -60 6 l-60
-5 0 42 c0 24 3 46 7 49 3 4 30 7 59 7 38 0 53 -4 58 -16z m-306 -30 c39 -11
24 -24 -28 -24 -46 0 -60 7 -43 23 8 9 41 9 71 1z m152 -14 c0 -5 -25 -10 -55
-10 -30 0 -55 5 -55 10 0 6 25 10 55 10 30 0 55 -4 55 -10z m-130 -185 l0
-155 -24 -6 c-13 -3 -35 -4 -47 -2 -24 3 -24 4 -27 161 l-3 157 51 0 50 0 0
-155z m130 0 l0 -155 -55 0 -55 0 0 155 0 155 55 0 55 0 0 -155z m160 -55 c0
-158 -2 -163 -77 -158 -39 2 -49 7 -51 23 -3 18 2 20 38 17 23 -2 47 1 53 7 8
8 -3 11 -41 11 l-52 0 0 123 0 122 65 -3 65 -4 0 -138z m-282 -181 c-2 -40 -7
-54 -18 -54 -19 0 -27 90 -9 111 20 24 30 1 27 -57z"/>
<path d="M0 2670 c0 -47 2 -50 25 -50 24 0 25 -3 25 -55 0 -52 -1 -55 -25 -55
-14 0 -25 -4 -25 -10 0 -5 11 -10 25 -10 24 0 25 -2 25 -75 0 -73 -1 -75 -25
-75 -14 0 -25 -4 -25 -10 0 -5 11 -10 25 -10 36 0 33 -30 -2 -31 l-28 0 24
-10 c14 -5 28 -6 33 -1 5 5 8 88 6 185 -3 161 2 207 16 160 7 -25 7 -308 0
-370 -6 -52 -7 -53 -40 -53 -19 0 -34 -4 -34 -10 0 -5 16 -10 35 -10 24 0 35
-5 35 -15 0 -10 -11 -15 -35 -15 -24 0 -35 -5 -35 -15 0 -13 72 -15 588 -15
l587 0 -3 287 c-1 159 -5 294 -7 301 -3 9 -129 12 -585 12 l-580 0 0 -50z
m820 -50 l0 -50 -40 0 -40 0 0 43 c0 52 4 57 47 57 l33 0 0 -50z m-589 8 c4
-15 5 -129 1 -253 l-5 -226 -31 3 -31 3 -3 240 c-1 132 0 246 3 253 3 8 16 12
32 10 19 -2 29 -10 34 -30z m477 -225 l2 -253 -24 0 c-16 0 -26 7 -30 23 -3
12 -6 127 -6 255 l0 233 28 -3 27 -3 3 -252z m-334 231 c14 -5 16 -31 16 -186
l0 -179 -42 3 -43 3 -8 159 c-10 190 -7 206 32 206 16 0 36 -3 45 -6z m126
-185 l0 -180 -37 3 -38 3 -3 178 -2 177 40 0 40 0 0 -181z m108 21 c3 -197 2
-202 -46 -198 l-37 3 -3 178 -2 178 42 -3 43 -3 3 -155z m-470 -82 c-3 -212
-5 -233 -20 -236 -17 -3 -18 13 -18 232 0 230 1 236 20 236 20 0 20 -5 18
-232z m1012 -8 l-6 -225 -2 235 c-1 128 2 230 6 225 5 -6 5 -111 2 -235z m-50
185 l0 -35 -60 0 -60 0 0 35 0 35 60 0 60 0 0 -35z m-280 -216 l0 -199 -34 0
-33 0 -7 77 c-3 42 -6 133 -6 202 l0 127 40 -4 40 -4 0 -199z m280 11 l0 -150
-60 0 -60 0 0 150 0 150 60 0 60 0 0 -150z m-500 -165 l0 -45 -162 2 -163 3
-3 43 -3 42 165 0 166 0 0 -45z"/>
<path d="M1002 2383 c2 -12 14 -19 36 -21 27 -3 32 0 32 17 0 17 -6 21 -36 21
-28 0 -35 -3 -32 -17z"/>
<path d="M1023 2343 c15 -2 37 -2 50 0 12 2 0 4 -28 4 -27 0 -38 -2 -22 -4z"/>
<path d="M5068 2703 c12 -2 30 -2 40 0 9 3 -1 5 -23 4 -22 0 -30 -2 -17 -4z"/>
<path d="M5040 2330 c0 -5 18 -10 40 -10 22 0 40 5 40 10 0 6 -18 10 -40 10
-22 0 -40 -4 -40 -10z"/>
<path d="M5068 1943 c12 -2 30 -2 40 0 9 3 -1 5 -23 4 -22 0 -30 -2 -17 -4z"/>
<path d="M5042 1858 c3 -7 20 -13 39 -14 l34 -1 -35 5 -35 6 40 6 40 7 -43 2
c-31 1 -42 -3 -40 -11z"/>
<path d="M5073 1573 c9 -2 25 -2 35 0 9 3 1 5 -18 5 -19 0 -27 -2 -17 -5z"/>
<path d="M0 1410 c0 -13 65 -15 383 -12 117 1 187 6 187 12 0 6 -102 10 -285
10 -183 0 -285 -4 -285 -10z"/>
<path d="M903 1413 c-41 -16 7 -22 160 -22 173 1 201 4 176 20 -15 9 -315 11
-336 2z"/>
<path d="M4065 651 c-13 -98 -40 -91 338 -91 183 -1 419 -3 525 -6 114 -4 192
-2 192 4 0 9 -515 22 -857 22 l-163 0 0 60 c0 45 -4 60 -14 60 -9 0 -16 -17
-21 -49z"/>
<path d="M0 615 c0 -23 3 -25 51 -25 l52 0 -7 -77 c-3 -42 -6 -91 -6 -109 0
-31 -2 -33 -45 -40 -28 -4 -45 -11 -45 -20 0 -10 13 -14 45 -14 l45 0 0 -45 0
-45 -45 0 c-43 0 -45 -1 -45 -30 0 -29 2 -30 45 -30 l45 0 0 -40 0 -40 -45 0
c-33 0 -45 -4 -45 -15 0 -11 12 -15 45 -15 45 0 45 0 45 -35 0 -19 5 -35 10
-35 6 0 10 60 10 159 0 88 3 162 7 164 5 2 32 2 61 -1 l52 -4 0 -159 c0 -99 4
-159 10 -159 6 0 10 87 10 240 l0 240 79 0 c63 0 80 -3 85 -16 3 -9 6 -117 6
-240 0 -143 4 -224 10 -224 6 0 10 95 10 266 l0 265 43 -3 42 -3 3 -263 c1
-163 6 -262 12 -262 6 0 10 100 10 271 l0 270 43 -3 42 -3 2 -85 c1 -47 2
-167 2 -267 1 -115 5 -183 11 -183 6 0 10 98 10 273 0 182 4 267 10 257 6 -9
10 -107 9 -240 -1 -283 -1 -290 11 -290 6 0 10 70 10 190 l0 189 57 3 c81 4
82 26 1 31 l-63 3 73 2 72 2 0 -210 0 -210 50 0 c35 0 48 4 45 13 -3 6 15 83
39 170 25 86 55 205 67 264 12 60 25 112 29 116 4 4 14 5 23 1 38 -14 5 -240
-79 -541 -6 -21 -3 -23 33 -23 40 0 40 0 47 46 3 26 6 84 6 130 0 52 4 84 11
84 7 0 9 -44 7 -130 -2 -72 0 -130 5 -130 4 0 7 56 7 124 0 73 4 127 10 131 6
4 10 -40 10 -124 0 -72 4 -131 9 -131 13 0 23 246 17 430 -4 91 -6 175 -6 188
l0 22 -585 0 -585 0 0 -25z m838 -129 l3 -46 -70 0 -71 0 0 43 c0 24 2 46 5
48 2 3 33 4 67 3 l63 -1 3 -47z m-608 29 c0 -12 -13 -15 -55 -15 -42 0 -55 3
-55 15 0 12 13 15 55 15 42 0 55 -3 55 -15z m0 -90 l0 -55 -55 0 -55 0 0 55 0
55 55 0 55 0 0 -55z m-22 -72 c-15 -2 -42 -2 -60 0 -18 2 -6 4 27 4 33 0 48
-2 33 -4z m952 -58 c0 -21 -5 -25 -30 -25 -25 0 -30 4 -30 25 0 21 5 25 30 25
25 0 30 -4 30 -25z"/>
<path d="M4120 300 c0 -5 14 -10 30 -10 17 0 30 5 30 10 0 6 -13 10 -30 10
-16 0 -30 -4 -30 -10z"/>
<path d="M1284 155 c0 -82 2 -115 3 -72 2 43 2 110 0 150 -1 40 -3 5 -3 -78z"/>
<path d="M1313 65 c0 -27 2 -38 4 -22 2 15 2 37 0 50 -2 12 -4 0 -4 -28z"/>
</g>
</svg>